<mxfile host="Electron" agent="Mozilla/5.0 (Windows NT 10.0; Win64; x64) AppleWebKit/537.36 (KHTML, like Gecko) draw.io/24.7.17 Chrome/128.0.6613.36 Electron/32.0.1 Safari/537.36" version="24.7.17">
  <diagram name="第 1 页" id="Ex556i7gQitAk_UZHKa7">
    <mxGraphModel dx="1635" dy="740" grid="0" gridSize="10" guides="1" tooltips="1" connect="1" arrows="1" fold="1" page="0" pageScale="1" pageWidth="1169" pageHeight="827" math="0" shadow="0">
      <root>
        <mxCell id="0" />
        <mxCell id="1" parent="0" />
        <mxCell id="ecNucuu_QlBcVASHz4F9-17" value="" style="rounded=0;whiteSpace=wrap;html=1;textShadow=1;dashed=1;fillColor=#60a917;fontColor=#ffffff;strokeColor=#2D7600;fillStyle=hatch;" vertex="1" parent="1">
          <mxGeometry x="-40" y="500" width="500" height="210" as="geometry" />
        </mxCell>
        <mxCell id="ecNucuu_QlBcVASHz4F9-15" value="" style="rounded=0;whiteSpace=wrap;html=1;textShadow=1;dashed=1;fillColor=#e3c800;fontColor=#000000;strokeColor=#B09500;fillStyle=hatch;" vertex="1" parent="1">
          <mxGeometry x="-40" y="270" width="500" height="210" as="geometry" />
        </mxCell>
        <mxCell id="ecNucuu_QlBcVASHz4F9-14" value="" style="rounded=0;whiteSpace=wrap;html=1;textShadow=1;dashed=1;fillColor=#1ba1e2;fontColor=#ffffff;strokeColor=#006EAF;fillStyle=hatch;" vertex="1" parent="1">
          <mxGeometry x="-40" y="45" width="500" height="210" as="geometry" />
        </mxCell>
        <mxCell id="ecNucuu_QlBcVASHz4F9-5" value="&lt;div style=&quot;font-size: 16px;&quot;&gt;End-to-end encryption for authentication process&lt;/div&gt;" style="rounded=0;whiteSpace=wrap;html=1;fillColor=#1ba1e2;strokeColor=#006EAF;fontColor=#ffffff;fontSize=16;fontStyle=1" vertex="1" parent="1">
          <mxGeometry y="80" width="410" height="60" as="geometry" />
        </mxCell>
        <mxCell id="ecNucuu_QlBcVASHz4F9-6" value="" style="sketch=0;html=1;aspect=fixed;strokeColor=#006EAF;shadow=0;fillColor=#1ba1e2;verticalAlign=top;labelPosition=center;verticalLabelPosition=bottom;shape=mxgraph.gcp2.check;fontColor=#ffffff;fontSize=16;fontStyle=1" vertex="1" parent="1">
          <mxGeometry x="580" y="90" width="150" height="120" as="geometry" />
        </mxCell>
        <mxCell id="ecNucuu_QlBcVASHz4F9-7" value="&lt;div style=&quot;font-size: 16px;&quot;&gt;Transactional operations&lt;br style=&quot;font-size: 16px;&quot;&gt;&lt;/div&gt;" style="rounded=0;whiteSpace=wrap;html=1;fillColor=#1ba1e2;strokeColor=#006EAF;fontColor=#ffffff;fontSize=16;fontStyle=1" vertex="1" parent="1">
          <mxGeometry x="90" y="170" width="240" height="60" as="geometry" />
        </mxCell>
        <mxCell id="ecNucuu_QlBcVASHz4F9-9" value="Stateless authentication system based on Spring Security and JWT" style="rounded=0;whiteSpace=wrap;html=1;fillColor=#f0a30a;fontColor=#000000;strokeColor=#BD7000;fontSize=16;fontStyle=1" vertex="1" parent="1">
          <mxGeometry y="300" width="415" height="60" as="geometry" />
        </mxCell>
        <mxCell id="ecNucuu_QlBcVASHz4F9-10" value="&lt;div style=&quot;font-size: 16px;&quot;&gt;Authentication and authorization exception handling&lt;/div&gt;" style="rounded=0;whiteSpace=wrap;html=1;fillColor=#f0a30a;fontColor=#000000;strokeColor=#BD7000;fontSize=16;fontStyle=1" vertex="1" parent="1">
          <mxGeometry y="400" width="410" height="60" as="geometry" />
        </mxCell>
        <mxCell id="ecNucuu_QlBcVASHz4F9-12" value="&lt;div style=&quot;font-size: 16px;&quot;&gt;URL path-based access control configuration&lt;/div&gt;" style="rounded=0;whiteSpace=wrap;html=1;fillColor=#60a917;fontColor=#ffffff;strokeColor=#2D7600;fontSize=16;fontStyle=1" vertex="1" parent="1">
          <mxGeometry y="510" width="400" height="60" as="geometry" />
        </mxCell>
        <mxCell id="ecNucuu_QlBcVASHz4F9-13" value="&lt;div style=&quot;font-size: 16px;&quot;&gt;IP rate-limiting filter&lt;/div&gt;" style="rounded=0;whiteSpace=wrap;html=1;fillColor=#60a917;fontColor=#ffffff;strokeColor=#2D7600;fontSize=16;fontStyle=1" vertex="1" parent="1">
          <mxGeometry x="105" y="610" width="210" height="60" as="geometry" />
        </mxCell>
        <mxCell id="ecNucuu_QlBcVASHz4F9-16" value="" style="sketch=0;html=1;aspect=fixed;strokeColor=#BD7000;shadow=0;fillColor=#f0a30a;verticalAlign=top;labelPosition=center;verticalLabelPosition=bottom;shape=mxgraph.gcp2.check;fontColor=#000000;fontSize=16;fontStyle=1" vertex="1" parent="1">
          <mxGeometry x="580" y="315" width="150" height="120" as="geometry" />
        </mxCell>
        <mxCell id="ecNucuu_QlBcVASHz4F9-18" value="" style="sketch=0;html=1;aspect=fixed;strokeColor=#2D7600;shadow=0;fillColor=#60a917;verticalAlign=top;labelPosition=center;verticalLabelPosition=bottom;shape=mxgraph.gcp2.check;fontColor=#ffffff;fontSize=16;fontStyle=1" vertex="1" parent="1">
          <mxGeometry x="580" y="545" width="150" height="120" as="geometry" />
        </mxCell>
      </root>
    </mxGraphModel>
  </diagram>
</mxfile>
